<svg width="28" height="16" viewBox="0 0 28 16" fill="none" xmlns="http://www.w3.org/2000/svg">
<path d="M14.169 16C18.2196 16 16.7753 13.6555 17.088 12.9813C17.0833 12.4779 17.0786 11.9936 17.0973 11.6992C17.354 11.7653 17.9595 12.0459 19.2101 13.1573C21.1409 14.9387 21.6344 16 23.1942 16H26.0654C26.9754 16 27.449 15.6555 27.6859 15.3664C27.9145 15.0869 28.1385 14.5963 27.8935 13.8325C27.253 11.9936 23.5174 8.81813 23.2852 8.4832C23.3202 8.42133 23.3762 8.3392 23.4054 8.29653H23.4031C24.1404 7.40587 26.9544 3.55093 27.3685 2.00853C27.3697 2.0064 27.3709 2.0032 27.3709 2C27.5949 1.296 27.3895 0.839467 27.1772 0.581333C26.8575 0.1952 26.3489 0 25.6617 0H22.7906C21.8293 0 21.1001 0.442667 20.7314 1.25013C20.1143 2.6848 18.3806 5.6352 17.081 6.67947C17.0413 5.2 17.0681 4.0704 17.0891 3.23093C17.1311 1.5936 17.2665 0 15.408 0H10.8954C9.73106 0 8.61691 1.16267 9.82323 2.54293C10.8779 3.75253 10.2024 4.42667 10.4299 7.7824C9.54323 6.91307 7.96591 4.56533 6.85059 1.5648C6.53793 0.753067 6.06427 0.00106659 4.73078 0.00106659H1.85965C0.695326 0.00106659 0 0.581333 0 1.55307C0 3.73547 5.28378 16 14.169 16ZM4.73078 1.60107C4.98394 1.60107 5.00961 1.60107 5.19744 2.08853C6.3396 5.16373 8.90157 9.71413 10.7729 9.71413C12.1787 9.71413 12.1787 8.3968 12.1787 7.9008L12.1775 3.952C12.1005 2.64533 11.5802 1.99467 11.2384 1.6L15.331 1.60427C15.3333 1.6224 15.3077 5.97227 15.3427 7.02613C15.3427 8.52267 16.6423 9.38027 18.6711 7.50293C20.8119 5.29387 22.2924 1.99147 22.3519 1.85707C22.4394 1.66507 22.5153 1.6 22.7906 1.6H25.6617H25.6734C25.6722 1.6032 25.6722 1.6064 25.6711 1.6096C25.4086 2.7296 22.8174 6.29867 21.9506 7.40693C21.9366 7.424 21.9238 7.44213 21.9109 7.46027C21.5294 8.02987 21.2191 8.6592 21.9634 9.54453H21.9646C22.0323 9.6192 22.2084 9.79413 22.4651 10.0373C23.2631 10.7904 26 13.3653 26.2427 14.3893C26.0817 14.4128 25.9067 14.3957 23.1942 14.4011C22.6168 14.4011 22.1653 13.6117 20.4421 12.0224C18.8928 10.6443 17.8871 10.0811 16.9713 10.0811C15.1933 10.0811 15.3228 11.4005 15.3392 12.9963C15.345 14.7264 15.3333 14.1792 15.3462 14.288C15.2423 14.3253 14.9448 14.4 14.169 14.4C6.76659 14.4 1.94598 3.6576 1.76048 1.60427C1.82465 1.59893 2.7078 1.60213 4.73078 1.60107Z" fill="white"/>
</svg>
